HIERARCHY
ROOT Hips
{
	OFFSET 0.000000 0.000000 0.000000
	CHANNELS 6 Xposition Yposition Zposition Zrotation Yrotation Xrotation 
	JOINT LHipJoint
	{
		OFFSET 0.000000 0.000000 0.000000
		CHANNELS 3 Zrotation Yrotation Xrotation
		JOINT LeftUpLeg
		{
			OFFSET 1.363060 -1.794630 0.839290
			CHANNELS 3 Zrotation Yrotation Xrotation
			JOINT LeftLeg
			{
				OFFSET 2.448110 -6.726130 0.000000
				CHANNELS 3 Zrotation Yrotation Xrotation
				JOINT LeftFoot
				{
					OFFSET 2.562200 -7.039590 0.000000
					CHANNELS 3 Zrotation Yrotation Xrotation
					JOINT LeftToeBase
					{
						OFFSET 0.157640 -0.433110 2.322550
						CHANNELS 3 Zrotation Yrotation Xrotation
						End Site
						{
							OFFSET 0.000000 0.000000 0.000000
						}
					}
				}
			}
		}
	}
	JOINT RHipJoint
	{
		OFFSET 0.000000 0.000000 0.000000
		CHANNELS 3 Zrotation Yrotation Xrotation
		JOINT RightUpLeg
		{
			OFFSET -1.305520 -1.794630 0.839290
			CHANNELS 3 Zrotation Yrotation Xrotation
			JOINT RightLeg
			{
				OFFSET -2.542530 -6.985550 0.000000
				CHANNELS 3 Zrotation Yrotation Xrotation
				JOINT RightFoot
				{
					OFFSET -2.568260 -7.056230 0.000000
					CHANNELS 3 Zrotation Yrotation Xrotation
					JOINT RightToeBase
					{
						OFFSET -0.164730 -0.452590 2.363150
						CHANNELS 3 Zrotation Yrotation Xrotation
						End Site
						{
							OFFSET 0.000000 0.000000 0.000000
						}
					}
				}
			}
		}
	}
	JOINT LowerBack
	{
		OFFSET 0.000000 0.000000 0.000000
		CHANNELS 3 Zrotation Yrotation Xrotation
		JOINT Spine
		{
			OFFSET 0.028270 2.035590 -0.193380
			CHANNELS 3 Zrotation Yrotation Xrotation
			JOINT Spine1
			{
				OFFSET 0.056720 2.048850 -0.042750
				CHANNELS 3 Zrotation Yrotation Xrotation
				JOINT Neck
				{
					OFFSET 0.000000 0.000000 0.000000
					CHANNELS 3 Zrotation Yrotation Xrotation
					JOINT Neck1
					{
						OFFSET -0.054170 1.746240 0.172020
						CHANNELS 3 Zrotation Yrotation Xrotation
						JOINT Head
						{
							OFFSET 0.104070 1.761360 -0.123970
							CHANNELS 3 Zrotation Yrotation Xrotation
							End Site
							{
								OFFSET 0.000000 0.000000 0.000000
							}
						}
					}
				}
				JOINT LeftShoulder
				{
					OFFSET 0.000000 0.000000 0.000000
					CHANNELS 3 Zrotation Yrotation Xrotation
					JOINT LeftArm
					{
						OFFSET 3.362410 1.200890 -0.311210
						CHANNELS 3 Zrotation Yrotation Xrotation
						JOINT LeftForeArm
						{
							OFFSET 4.983000 -0.000000 -0.000000
							CHANNELS 3 Zrotation Yrotation Xrotation
							JOINT LeftHand
							{
								OFFSET 3.483560 -0.000000 -0.000000
								CHANNELS 3 Zrotation Yrotation Xrotation
								JOINT LeftFingerBase
								{
									OFFSET 0.000000 0.000000 0.000000
									CHANNELS 3 Zrotation Yrotation Xrotation
									JOINT LeftHandIndex1
									{
										OFFSET 0.715260 -0.000000 -0.000000
										CHANNELS 3 Zrotation Yrotation Xrotation
										End Site
										{
											OFFSET 0.000000 0.000000 0.000000
										}
									}
								}
								JOINT LThumb
								{
									OFFSET 0.000000 0.000000 0.000000
									CHANNELS 3 Zrotation Yrotation Xrotation
									End Site
									{
										OFFSET 0.000000 0.000000 0.000000
									}
								}
							}
						}
					}
				}
				JOINT RightShoulder
				{
					OFFSET 0.000000 0.000000 0.000000
					CHANNELS 3 Zrotation Yrotation Xrotation
					JOINT RightArm
					{
						OFFSET -3.136600 1.374050 -0.404650
						CHANNELS 3 Zrotation Yrotation Xrotation
						JOINT RightForeArm
						{
							OFFSET -5.241900 -0.000000 -0.000000
							CHANNELS 3 Zrotation Yrotation Xrotation
							JOINT RightHand
							{
								OFFSET -3.444170 -0.000000 -0.000000
								CHANNELS 3 Zrotation Yrotation Xrotation
								JOINT RightFingerBase
								{
									OFFSET 0.000000 0.000000 0.000000
									CHANNELS 3 Zrotation Yrotation Xrotation
									JOINT RightHandIndex1
									{
										OFFSET -0.622530 -0.000000 -0.000000
										CHANNELS 3 Zrotation Yrotation Xrotation
										End Site
										{
											OFFSET 0.000000 0.000000 0.000000
										}
									}
								}
								JOINT RThumb
								{
									OFFSET 0.000000 0.000000 0.000000
									CHANNELS 3 Zrotation Yrotation Xrotation
									End Site
									{
										OFFSET 0.000000 0.000000 0.000000
									}
								}
							}
						}
					}
				}
			}
		}
	}
}
MOTION
Frames: 6
Frame Time: 0.008333
-4.215803 17.196765 -0.663223 -179.010557 85.390344 -149.217890 -11.651511 0.548614 -5.135839 -14.432715 13.083856 -35.591695 -2.180521 2.857139 42.350780 0.573349 2.154333 -3.055863 0.183900 0.000000 -57.144199 7.457255 0.858208 -2.087034 17.059599 -5.732068 -60.504507 4.111933 -3.280794 32.537782 -0.177853 0.869115 -4.427712 -0.275000 -0.000000 -60.203900 3.426034 -3.242622 10.217265 0.600765 -3.343133 -0.733015 -3.291803 -3.256449 0.201129 1.639064 -13.933154 -5.931612 -1.984573 -0.150884 0.080107 0.000000 0.000000 0.000000 7.480067 10.882226 -0.685688 -59.509272 -11.855756 11.071168 -177.740961 -61.288247 179.970738 3.075385 2.267878 0.052865 -0.187484 0.465712 0.000000 0.000000 0.000000 0.000000 0.000000 0.000000 0.000000 -1.227644 -11.181073 -0.378333 69.028763 -36.627232 19.514451 -179.933287 89.154751 179.953248 -18.455783 1.036598 -0.197603 0.264528 -0.172523 -0.000000 0.000000 0.000000 0.000000 0.000000 0.000000 0.000000 
-4.001264 17.269407 -0.655871 -178.522614 85.127342 -148.489250 -11.788600 0.517107 -5.272179 -13.946547 13.807163 -35.886319 -2.072828 2.988081 43.059315 0.637147 2.672739 -1.444949 0.291100 -0.000000 -55.726900 7.314415 0.745102 -1.761735 17.371041 -5.264573 -59.459399 4.478460 -2.674712 28.248499 -0.128289 0.904326 -3.845601 -0.322100 0.000001 -61.220200 3.680548 -3.291349 10.045948 0.670707 -3.408347 -0.773427 -3.253359 -3.322987 0.235526 1.673936 -14.244794 -6.063095 -1.989037 -0.149866 0.046980 0.000000 0.000000 0.000000 7.928067 10.988811 -0.727317 -59.906211 -10.555068 11.523934 -177.745919 -60.688795 179.974483 2.746447 2.006182 0.040595 -0.170602 0.470467 0.000000 0.000000 0.000000 0.000000 0.000000 0.000000 0.000000 -1.175151 -11.453067 -0.436622 69.134421 -37.020592 19.181327 -179.936050 88.563829 179.953500 -18.271065 1.628169 -0.293674 0.265103 -0.182400 -0.000000 0.000000 0.000000 0.000000 0.000000 0.000000 0.000000 
-3.787890 17.331958 -0.647358 -178.714727 84.840741 -148.472398 -11.886295 0.484879 -5.428320 -13.557696 14.483349 -36.208934 -1.968073 3.126423 43.989037 0.769912 3.676452 -0.345238 0.449400 -0.000000 -53.270300 7.205748 0.699683 -1.453496 17.475817 -4.851307 -58.401769 4.764887 -2.060816 24.250863 -0.122114 0.749324 -3.383472 -0.389500 0.000000 -62.166300 3.903371 -3.350268 9.915196 0.732321 -3.481879 -0.804690 -3.227137 -3.396186 0.268657 1.721393 -14.535243 -6.207635 -1.990148 -0.148324 0.009310 0.000000 0.000000 0.000000 8.326616 11.079854 -0.752888 -60.255835 -9.231581 12.016315 -177.756436 -60.133180 179.978262 2.402960 1.754886 0.030014 -0.152689 0.474511 0.000000 0.000000 0.000000 0.000000 0.000000 0.000000 0.000000 -1.125802 -11.693600 -0.476838 69.392387 -37.334318 18.682030 -179.939316 88.006864 179.953639 -18.045119 2.281669 -0.397150 0.264481 -0.194077 -0.000000 0.000000 0.000000 0.000000 0.000000 0.000000 0.000000 
-3.576258 17.383499 -0.638243 -179.338663 84.542617 -148.928089 -11.950420 0.452362 -5.601933 -13.247729 15.123919 -36.556555 -1.867987 3.275211 45.150870 0.960503 5.100057 0.212452 0.658400 0.000000 -49.822200 7.128904 0.712938 -1.174477 17.400013 -4.491167 -57.376392 4.960220 -1.473378 20.688616 -0.165924 0.394857 -3.074256 -0.479900 0.000000 -62.746900 4.103394 -3.417766 9.830827 0.787993 -3.562166 -0.826864 -3.208802 -3.474804 0.296368 1.769118 -14.799186 -6.360370 -1.985366 -0.146139 -0.031475 0.000000 0.000000 0.000000 8.667471 11.135173 -0.763811 -60.553312 -7.856136 12.518937 -177.774647 -59.601051 179.981884 2.064599 1.517406 0.021322 -0.134168 0.477760 0.000000 0.000000 0.000000 0.000000 0.000000 0.000000 0.000000 -1.107562 -11.895626 -0.493688 69.799984 -37.555609 18.043372 -179.942957 87.509240 179.953647 -17.809486 2.955499 -0.501032 0.263134 -0.206718 -0.000000 0.000000 0.000000 0.000000 0.000000 0.000000 0.000000 
-3.366612 17.423534 -0.628662 179.665797 84.237467 -149.801888 -11.983376 0.423302 -5.787262 -13.010010 15.716822 -36.916630 -1.772270 3.435344 46.538790 1.197501 6.844290 0.236262 0.887400 0.000000 -45.443500 7.085881 0.774833 -0.938590 17.174036 -4.213042 -56.415183 5.068010 -0.942438 17.643556 -0.255721 -0.126449 -2.923102 -0.587800 -0.000000 -62.994701 4.275906 -3.492599 9.797763 0.835833 -3.647860 -0.838826 -3.199064 -3.557469 0.317690 1.821343 -15.028395 -6.518931 -1.976284 -0.143453 -0.074730 0.000000 0.000000 0.000000 8.954223 11.161909 -0.760779 -60.804048 -6.444785 13.030903 -177.800610 -59.102442 179.985290 1.734744 1.304306 0.014520 -0.115264 0.479880 -0.000000 0.000000 0.000000 0.000000 0.000000 0.000000 0.000000 -1.106662 -12.052405 -0.488641 70.341336 -37.688600 17.270807 -179.946864 87.075258 179.953521 -17.577492 3.602365 -0.597919 0.261356 -0.219483 -0.000000 0.000000 0.000000 0.000000 0.000000 0.000000 0.000000 
-3.159174 17.451507 -0.618741 178.413501 83.929917 -150.979792 -11.991742 0.399095 -5.979033 -12.826938 16.257504 -37.286430 -1.678907 3.608470 48.144068 1.465918 8.769003 -0.216464 1.085600 -0.000000 -40.440900 7.074630 0.870247 -0.751548 16.831610 -4.018721 -55.542720 5.097432 -0.492013 15.176136 -0.385611 -0.780695 -2.919564 -0.706100 0.000000 -62.840600 4.420319 -3.573005 9.814260 0.875512 -3.737128 -0.841435 -3.196621 -3.642516 0.330741 1.876995 -15.217340 -6.679018 -1.963514 -0.140378 -0.119148 0.000000 0.000000 0.000000 9.193385 11.157651 -0.746057 -61.017328 -4.994016 13.544426 -177.835522 -58.635702 179.988413 1.421848 1.116284 0.009510 -0.096217 0.480871 -0.000000 0.000000 0.000000 0.000000 0.000000 0.000000 0.000000 -1.121938 -12.159313 -0.462965 70.997308 -37.732414 16.388886 -179.950826 86.712883 179.953246 -17.372775 4.185492 -0.683309 0.259618 -0.231629 -0.000000 0.000000 0.000000 0.000000 0.000000 0.000000 0.000000 
